<svg width="350" height="237" viewBox="0 0 350 237" fill="none" xmlns="http://www.w3.org/2000/svg">
<rect width="350" height="237" rx="16" fill="#F8F4EB"/>
<path d="M37.2617 62H33.7461V44.9375H37.2617V62ZM41.5944 62V51.8047H39.7077V49.3203H41.5944V48.2422C41.5944 46.8203 42.0006 45.7188 42.8131 44.9375C43.6334 44.1484 44.778 43.7539 46.2467 43.7539C46.7155 43.7539 47.2897 43.832 47.9694 43.9883L47.9342 46.6133C47.653 46.543 47.3092 46.5078 46.903 46.5078C45.6295 46.5078 44.9928 47.1055 44.9928 48.3008V49.3203H47.5123V51.8047H44.9928V62H41.5944ZM60.7011 57.207L63.0448 49.3203H66.6777L61.58 63.9688L61.2987 64.6367C60.5409 66.293 59.2909 67.1211 57.5487 67.1211C57.0566 67.1211 56.5566 67.0469 56.0487 66.8984V64.332L56.5644 64.3438C57.205 64.3438 57.6816 64.2461 57.9941 64.0508C58.3144 63.8555 58.5644 63.5312 58.7441 63.0781L59.1425 62.0352L54.7011 49.3203H58.3456L60.7011 57.207ZM67.6587 55.543C67.6587 54.2852 67.9009 53.1641 68.3853 52.1797C68.8697 51.1953 69.565 50.4336 70.4712 49.8945C71.3853 49.3555 72.4439 49.0859 73.647 49.0859C75.358 49.0859 76.7525 49.6094 77.8306 50.6562C78.9166 51.7031 79.522 53.125 79.647 54.9219L79.6705 55.7891C79.6705 57.7344 79.1275 59.2969 78.0416 60.4766C76.9556 61.6484 75.4986 62.2344 73.6705 62.2344C71.8423 62.2344 70.3814 61.6484 69.2877 60.4766C68.2017 59.3047 67.6587 57.7109 67.6587 55.6953V55.543ZM71.0455 55.7891C71.0455 56.9922 71.272 57.9141 71.7252 58.5547C72.1783 59.1875 72.8267 59.5039 73.6705 59.5039C74.4908 59.5039 75.1314 59.1914 75.5923 58.5664C76.0533 57.9336 76.2837 56.9258 76.2837 55.543C76.2837 54.3633 76.0533 53.4492 75.5923 52.8008C75.1314 52.1523 74.483 51.8281 73.647 51.8281C72.8189 51.8281 72.1783 52.1523 71.7252 52.8008C71.272 53.4414 71.0455 54.4375 71.0455 55.7891ZM89.7102 60.7109C88.8742 61.7266 87.718 62.2344 86.2414 62.2344C84.882 62.2344 83.843 61.8438 83.1242 61.0625C82.4133 60.2812 82.05 59.1367 82.0344 57.6289V49.3203H85.4211V57.5117C85.4211 58.832 86.0227 59.4922 87.2258 59.4922C88.3742 59.4922 89.1633 59.0938 89.593 58.2969V49.3203H92.9914V62H89.8039L89.7102 60.7109ZM107.516 59.5039C108.141 59.5039 108.649 59.332 109.04 58.9883C109.43 58.6445 109.633 58.1875 109.649 57.6172H112.825C112.817 58.4766 112.582 59.2656 112.122 59.9844C111.661 60.6953 111.028 61.25 110.223 61.6484C109.426 62.0391 108.543 62.2344 107.575 62.2344C105.762 62.2344 104.332 61.6602 103.286 60.5117C102.239 59.3555 101.715 57.7617 101.715 55.7305V55.5078C101.715 53.5547 102.235 51.9961 103.274 50.832C104.313 49.668 105.739 49.0859 107.551 49.0859C109.137 49.0859 110.407 49.5391 111.36 50.4453C112.321 51.3438 112.809 52.543 112.825 54.043H109.649C109.633 53.3867 109.43 52.8555 109.04 52.4492C108.649 52.0352 108.133 51.8281 107.493 51.8281C106.704 51.8281 106.106 52.1172 105.7 52.6953C105.301 53.2656 105.102 54.1953 105.102 55.4844V55.8359C105.102 57.1406 105.301 58.0781 105.7 58.6484C106.098 59.2188 106.704 59.5039 107.516 59.5039ZM122.466 62C122.31 61.6953 122.196 61.3164 122.126 60.8633C121.306 61.7773 120.239 62.2344 118.927 62.2344C117.685 62.2344 116.653 61.875 115.833 61.1562C115.021 60.4375 114.614 59.5312 114.614 58.4375C114.614 57.0938 115.11 56.0625 116.103 55.3438C117.103 54.625 118.544 54.2617 120.427 54.2539H121.985V53.5273C121.985 52.9414 121.833 52.4727 121.528 52.1211C121.232 51.7695 120.759 51.5938 120.11 51.5938C119.54 51.5938 119.091 51.7305 118.763 52.0039C118.442 52.2773 118.282 52.6523 118.282 53.1289H114.896C114.896 52.3945 115.122 51.7148 115.575 51.0898C116.028 50.4648 116.669 49.9766 117.497 49.625C118.325 49.2656 119.255 49.0859 120.286 49.0859C121.849 49.0859 123.087 49.4805 124.001 50.2695C124.923 51.0508 125.384 52.1523 125.384 53.5742V59.0703C125.392 60.2734 125.56 61.1836 125.888 61.8008V62H122.466ZM119.665 59.6445C120.165 59.6445 120.626 59.5352 121.048 59.3164C121.47 59.0898 121.782 58.7891 121.985 58.4141V56.2344H120.72C119.025 56.2344 118.122 56.8203 118.013 57.9922L118.001 58.1914C118.001 58.6133 118.15 58.9609 118.446 59.2344C118.743 59.5078 119.15 59.6445 119.665 59.6445ZM131.463 49.3203L131.568 50.7852C132.474 49.6523 133.689 49.0859 135.213 49.0859C136.556 49.0859 137.556 49.4805 138.213 50.2695C138.869 51.0586 139.205 52.2383 139.22 53.8086V62H135.834V53.8906C135.834 53.1719 135.677 52.6523 135.365 52.332C135.052 52.0039 134.533 51.8398 133.806 51.8398C132.853 51.8398 132.138 52.2461 131.662 53.0586V62H128.275V49.3203H131.463ZM155.362 58.4961C155.362 58.082 155.155 57.7578 154.741 57.5234C154.335 57.2812 153.679 57.0664 152.772 56.8789C149.757 56.2461 148.249 54.9648 148.249 53.0352C148.249 51.9102 148.714 50.9727 149.644 50.2227C150.581 49.4648 151.804 49.0859 153.312 49.0859C154.921 49.0859 156.206 49.4648 157.167 50.2227C158.136 50.9805 158.62 51.9648 158.62 53.1758H155.233C155.233 52.6914 155.077 52.293 154.765 51.9805C154.452 51.6602 153.964 51.5 153.3 51.5C152.73 51.5 152.288 51.6289 151.976 51.8867C151.663 52.1445 151.507 52.4727 151.507 52.8711C151.507 53.2461 151.683 53.5508 152.034 53.7852C152.394 54.0117 152.995 54.2109 153.839 54.3828C154.683 54.5469 155.394 54.7344 155.972 54.9453C157.761 55.6016 158.655 56.7383 158.655 58.3555C158.655 59.5117 158.159 60.4492 157.167 61.168C156.175 61.8789 154.894 62.2344 153.323 62.2344C152.261 62.2344 151.315 62.0469 150.487 61.6719C149.667 61.2891 149.022 60.7695 148.554 60.1133C148.085 59.4492 147.851 58.7344 147.851 57.9688H151.062C151.093 58.5703 151.315 59.0312 151.73 59.3516C152.144 59.6719 152.698 59.832 153.394 59.832C154.042 59.832 154.53 59.7109 154.858 59.4688C155.194 59.2188 155.362 58.8945 155.362 58.4961ZM172.621 55.7773C172.621 57.7305 172.175 59.2969 171.285 60.4766C170.402 61.6484 169.207 62.2344 167.699 62.2344C166.418 62.2344 165.382 61.7891 164.593 60.8984V66.875H161.207V49.3203H164.347L164.465 50.5625C165.285 49.5781 166.355 49.0859 167.675 49.0859C169.238 49.0859 170.453 49.6641 171.32 50.8203C172.187 51.9766 172.621 53.5703 172.621 55.6016V55.7773ZM169.234 55.5312C169.234 54.3516 169.023 53.4414 168.601 52.8008C168.187 52.1602 167.582 51.8398 166.785 51.8398C165.722 51.8398 164.992 52.2461 164.593 53.0586V58.25C165.007 59.0859 165.746 59.5039 166.808 59.5039C168.425 59.5039 169.234 58.1797 169.234 55.5312ZM180.926 62.2344C179.067 62.2344 177.551 61.6641 176.379 60.5234C175.215 59.3828 174.633 57.8633 174.633 55.9648V55.6367C174.633 54.3633 174.879 53.2266 175.371 52.2266C175.864 51.2188 176.559 50.4453 177.457 49.9062C178.364 49.3594 179.395 49.0859 180.551 49.0859C182.285 49.0859 183.649 49.6328 184.641 50.7266C185.641 51.8203 186.141 53.3711 186.141 55.3789V56.7617H178.067C178.176 57.5898 178.504 58.2539 179.051 58.7539C179.606 59.2539 180.305 59.5039 181.149 59.5039C182.453 59.5039 183.473 59.0312 184.207 58.0859L185.871 59.9492C185.364 60.668 184.676 61.2305 183.809 61.6367C182.942 62.0352 181.981 62.2344 180.926 62.2344ZM180.539 51.8281C179.867 51.8281 179.321 52.0547 178.899 52.5078C178.485 52.9609 178.219 53.6094 178.102 54.4531H182.813V54.1836C182.797 53.4336 182.594 52.8555 182.203 52.4492C181.813 52.0352 181.258 51.8281 180.539 51.8281ZM195.782 62C195.626 61.6953 195.513 61.3164 195.442 60.8633C194.622 61.7773 193.556 62.2344 192.243 62.2344C191.001 62.2344 189.97 61.875 189.149 61.1562C188.337 60.4375 187.931 59.5312 187.931 58.4375C187.931 57.0938 188.427 56.0625 189.419 55.3438C190.419 54.625 191.86 54.2617 193.743 54.2539H195.302V53.5273C195.302 52.9414 195.149 52.4727 194.845 52.1211C194.548 51.7695 194.075 51.5938 193.427 51.5938C192.856 51.5938 192.407 51.7305 192.079 52.0039C191.759 52.2773 191.599 52.6523 191.599 53.1289H188.212C188.212 52.3945 188.438 51.7148 188.892 51.0898C189.345 50.4648 189.985 49.9766 190.813 49.625C191.642 49.2656 192.571 49.0859 193.602 49.0859C195.165 49.0859 196.403 49.4805 197.317 50.2695C198.239 51.0508 198.7 52.1523 198.7 53.5742V59.0703C198.708 60.2734 198.876 61.1836 199.204 61.8008V62H195.782ZM192.981 59.6445C193.481 59.6445 193.942 59.5352 194.364 59.3164C194.786 59.0898 195.099 58.7891 195.302 58.4141V56.2344H194.036C192.341 56.2344 191.438 56.8203 191.329 57.9922L191.317 58.1914C191.317 58.6133 191.466 58.9609 191.763 59.2344C192.06 59.5078 192.466 59.6445 192.981 59.6445ZM206.267 56.9141L205.048 58.1328V62H201.662V44H205.048V53.9727L205.705 53.1289L208.951 49.3203H213.017L208.435 54.6055L213.416 62H209.525L206.267 56.9141ZM215.721 66.2773L213.951 65.3516L214.373 64.5898C214.897 63.6367 215.166 62.6875 215.182 61.7422V59.1172H218.041L218.03 61.4609C218.022 62.3281 217.803 63.2031 217.373 64.0859C216.944 64.9688 216.393 65.6992 215.721 66.2773ZM38.0352 85.207L40.3789 77.3203H44.0117L38.9141 91.9688L38.6328 92.6367C37.875 94.293 36.625 95.1211 34.8828 95.1211C34.3906 95.1211 33.8906 95.0469 33.3828 94.8984V92.332L33.8984 92.3438C34.5391 92.3438 35.0156 92.2461 35.3281 92.0508C35.6484 91.8555 35.8984 91.5312 36.0781 91.0781L36.4766 90.0352L32.0352 77.3203H35.6797L38.0352 85.207ZM44.9928 83.543C44.9928 82.2852 45.235 81.1641 45.7194 80.1797C46.2037 79.1953 46.8991 78.4336 47.8053 77.8945C48.7194 77.3555 49.778 77.0859 50.9811 77.0859C52.692 77.0859 54.0866 77.6094 55.1647 78.6562C56.2506 79.7031 56.8561 81.125 56.9811 82.9219L57.0045 83.7891C57.0045 85.7344 56.4616 87.2969 55.3756 88.4766C54.2897 89.6484 52.8327 90.2344 51.0045 90.2344C49.1764 90.2344 47.7155 89.6484 46.6217 88.4766C45.5358 87.3047 44.9928 85.7109 44.9928 83.6953V83.543ZM48.3795 83.7891C48.3795 84.9922 48.6061 85.9141 49.0592 86.5547C49.5123 87.1875 50.1608 87.5039 51.0045 87.5039C51.8248 87.5039 52.4655 87.1914 52.9264 86.5664C53.3873 85.9336 53.6178 84.9258 53.6178 83.543C53.6178 82.3633 53.3873 81.4492 52.9264 80.8008C52.4655 80.1523 51.817 79.8281 50.9811 79.8281C50.153 79.8281 49.5123 80.1523 49.0592 80.8008C48.6061 81.4414 48.3795 82.4375 48.3795 83.7891ZM67.0442 88.7109C66.2083 89.7266 65.052 90.2344 63.5755 90.2344C62.2161 90.2344 61.177 89.8438 60.4583 89.0625C59.7473 88.2812 59.3841 87.1367 59.3684 85.6289V77.3203H62.7552V85.5117C62.7552 86.832 63.3567 87.4922 64.5598 87.4922C65.7083 87.4922 66.4973 87.0938 66.927 86.2969V77.3203H70.3255V90H67.138L67.0442 88.7109ZM84.8502 87.5039C85.4752 87.5039 85.983 87.332 86.3736 86.9883C86.7642 86.6445 86.9673 86.1875 86.983 85.6172H90.1587C90.1509 86.4766 89.9166 87.2656 89.4556 87.9844C88.9947 88.6953 88.3619 89.25 87.5572 89.6484C86.7603 90.0391 85.8775 90.2344 84.9087 90.2344C83.0962 90.2344 81.6666 89.6602 80.6197 88.5117C79.5728 87.3555 79.0494 85.7617 79.0494 83.7305V83.5078C79.0494 81.5547 79.5689 79.9961 80.608 78.832C81.647 77.668 83.0728 77.0859 84.8853 77.0859C86.4712 77.0859 87.7408 77.5391 88.6939 78.4453C89.6548 79.3438 90.1431 80.543 90.1587 82.043H86.983C86.9673 81.3867 86.7642 80.8555 86.3736 80.4492C85.983 80.0352 85.4673 79.8281 84.8267 79.8281C84.0377 79.8281 83.44 80.1172 83.0337 80.6953C82.6353 81.2656 82.4361 82.1953 82.4361 83.4844V83.8359C82.4361 85.1406 82.6353 86.0781 83.0337 86.6484C83.4322 87.2188 84.0377 87.5039 84.8502 87.5039ZM99.8 90C99.6437 89.6953 99.5305 89.3164 99.4602 88.8633C98.6398 89.7773 97.5734 90.2344 96.2609 90.2344C95.0187 90.2344 93.9875 89.875 93.1672 89.1562C92.3547 88.4375 91.9484 87.5312 91.9484 86.4375C91.9484 85.0938 92.4445 84.0625 93.4367 83.3438C94.4367 82.625 95.8781 82.2617 97.7609 82.2539H99.3195V81.5273C99.3195 80.9414 99.1672 80.4727 98.8625 80.1211C98.5656 79.7695 98.093 79.5938 97.4445 79.5938C96.8742 79.5938 96.425 79.7305 96.0969 80.0039C95.7766 80.2773 95.6164 80.6523 95.6164 81.1289H92.2297C92.2297 80.3945 92.4562 79.7148 92.9094 79.0898C93.3625 78.4648 94.0031 77.9766 94.8312 77.625C95.6594 77.2656 96.5891 77.0859 97.6203 77.0859C99.1828 77.0859 100.421 77.4805 101.335 78.2695C102.257 79.0508 102.718 80.1523 102.718 81.5742V87.0703C102.726 88.2734 102.894 89.1836 103.222 89.8008V90H99.8ZM96.9992 87.6445C97.4992 87.6445 97.9602 87.5352 98.382 87.3164C98.8039 87.0898 99.1164 86.7891 99.3195 86.4141V84.2344H98.0539C96.3586 84.2344 95.4562 84.8203 95.3469 85.9922L95.3352 86.1914C95.3352 86.6133 95.4836 86.9609 95.7805 87.2344C96.0773 87.5078 96.4836 87.6445 96.9992 87.6445ZM108.797 77.3203L108.902 78.7852C109.808 77.6523 111.023 77.0859 112.547 77.0859C113.89 77.0859 114.89 77.4805 115.547 78.2695C116.203 79.0586 116.539 80.2383 116.555 81.8086V90H113.168V81.8906C113.168 81.1719 113.012 80.6523 112.699 80.332C112.387 80.0039 111.867 79.8398 111.14 79.8398C110.187 79.8398 109.473 80.2461 108.996 81.0586V90H105.609V77.3203H108.797ZM129.403 90H126.005V77.3203H129.403V90ZM125.806 74.0391C125.806 73.5312 125.974 73.1133 126.31 72.7852C126.653 72.457 127.118 72.293 127.704 72.293C128.282 72.293 128.743 72.457 129.087 72.7852C129.431 73.1133 129.603 73.5312 129.603 74.0391C129.603 74.5547 129.427 74.9766 129.075 75.3047C128.732 75.6328 128.275 75.7969 127.704 75.7969C127.134 75.7969 126.673 75.6328 126.321 75.3047C125.978 74.9766 125.806 74.5547 125.806 74.0391ZM135.681 77.3203L135.787 78.7852C136.693 77.6523 137.908 77.0859 139.431 77.0859C140.775 77.0859 141.775 77.4805 142.431 78.2695C143.088 79.0586 143.424 80.2383 143.439 81.8086V90H140.052V81.8906C140.052 81.1719 139.896 80.6523 139.584 80.332C139.271 80.0039 138.752 79.8398 138.025 79.8398C137.072 79.8398 136.357 80.2461 135.881 81.0586V90H132.494V77.3203H135.681ZM154.873 74.625C154.202 74.5469 153.577 74.5078 152.998 74.5078C151.467 74.5078 150.702 75.1602 150.702 76.4648V77.3203H153.221V79.8047H150.702V90H147.303V79.8047H145.416V77.3203H147.303V76.3359C147.319 74.8672 147.78 73.7383 148.686 72.9492C149.592 72.1523 150.873 71.7539 152.53 71.7539C153.709 71.7539 155.623 71.8789 158.272 72.1289V90H154.873V74.625ZM169.05 88.7109C168.214 89.7266 167.058 90.2344 165.581 90.2344C164.222 90.2344 163.183 89.8438 162.464 89.0625C161.753 88.2812 161.39 87.1367 161.374 85.6289V77.3203H164.761V85.5117C164.761 86.832 165.362 87.4922 166.565 87.4922C167.714 87.4922 168.503 87.0938 168.933 86.2969V77.3203H172.331V90H169.144L169.05 88.7109ZM181.082 90.2344C179.222 90.2344 177.707 89.6641 176.535 88.5234C175.371 87.3828 174.789 85.8633 174.789 83.9648V83.6367C174.789 82.3633 175.035 81.2266 175.527 80.2266C176.019 79.2188 176.715 78.4453 177.613 77.9062C178.519 77.3594 179.55 77.0859 180.707 77.0859C182.441 77.0859 183.804 77.6328 184.797 78.7266C185.797 79.8203 186.297 81.3711 186.297 83.3789V84.7617H178.222C178.332 85.5898 178.66 86.2539 179.207 86.7539C179.761 87.2539 180.461 87.5039 181.304 87.5039C182.609 87.5039 183.629 87.0312 184.363 86.0859L186.027 87.9492C185.519 88.668 184.832 89.2305 183.965 89.6367C183.097 90.0352 182.136 90.2344 181.082 90.2344ZM180.695 79.8281C180.023 79.8281 179.476 80.0547 179.054 80.5078C178.64 80.9609 178.375 81.6094 178.258 82.4531H182.968V82.1836C182.953 81.4336 182.75 80.8555 182.359 80.4492C181.968 80.0352 181.414 79.8281 180.695 79.8281ZM191.707 77.3203L191.813 78.7852C192.719 77.6523 193.934 77.0859 195.457 77.0859C196.801 77.0859 197.801 77.4805 198.457 78.2695C199.114 79.0586 199.45 80.2383 199.465 81.8086V90H196.078V81.8906C196.078 81.1719 195.922 80.6523 195.61 80.332C195.297 80.0039 194.778 79.8398 194.051 79.8398C193.098 79.8398 192.383 80.2461 191.907 81.0586V90H188.52V77.3203H191.707ZM207.677 87.5039C208.302 87.5039 208.81 87.332 209.2 86.9883C209.591 86.6445 209.794 86.1875 209.81 85.6172H212.985C212.977 86.4766 212.743 87.2656 212.282 87.9844C211.821 88.6953 211.188 89.25 210.384 89.6484C209.587 90.0391 208.704 90.2344 207.735 90.2344C205.923 90.2344 204.493 89.6602 203.446 88.5117C202.399 87.3555 201.876 85.7617 201.876 83.7305V83.5078C201.876 81.5547 202.395 79.9961 203.435 78.832C204.474 77.668 205.899 77.0859 207.712 77.0859C209.298 77.0859 210.567 77.5391 211.52 78.4453C212.481 79.3438 212.97 80.543 212.985 82.043H209.81C209.794 81.3867 209.591 80.8555 209.2 80.4492C208.81 80.0352 208.294 79.8281 207.653 79.8281C206.864 79.8281 206.267 80.1172 205.86 80.6953C205.462 81.2656 205.263 82.1953 205.263 83.4844V83.8359C205.263 85.1406 205.462 86.0781 205.86 86.6484C206.259 87.2188 206.864 87.5039 207.677 87.5039ZM221.115 90.2344C219.255 90.2344 217.74 89.6641 216.568 88.5234C215.404 87.3828 214.822 85.8633 214.822 83.9648V83.6367C214.822 82.3633 215.068 81.2266 215.56 80.2266C216.052 79.2188 216.748 78.4453 217.646 77.9062C218.552 77.3594 219.584 77.0859 220.74 77.0859C222.474 77.0859 223.837 77.6328 224.83 78.7266C225.83 79.8203 226.33 81.3711 226.33 83.3789V84.7617H218.255C218.365 85.5898 218.693 86.2539 219.24 86.7539C219.795 87.2539 220.494 87.5039 221.337 87.5039C222.642 87.5039 223.662 87.0312 224.396 86.0859L226.06 87.9492C225.552 88.668 224.865 89.2305 223.998 89.6367C223.13 90.0352 222.17 90.2344 221.115 90.2344ZM220.728 79.8281C220.056 79.8281 219.509 80.0547 219.087 80.5078C218.673 80.9609 218.408 81.6094 218.291 82.4531H223.002V82.1836C222.986 81.4336 222.783 80.8555 222.392 80.4492C222.002 80.0352 221.447 79.8281 220.728 79.8281ZM228.799 88.3359C228.799 87.7969 228.979 87.3594 229.338 87.0234C229.705 86.6875 230.162 86.5195 230.709 86.5195C231.264 86.5195 231.721 86.6875 232.08 87.0234C232.447 87.3594 232.631 87.7969 232.631 88.3359C232.631 88.8672 232.451 89.3008 232.092 89.6367C231.733 89.9648 231.272 90.1289 230.709 90.1289C230.155 90.1289 229.697 89.9648 229.338 89.6367C228.979 89.3008 228.799 88.8672 228.799 88.3359ZM37.2617 118H33.7461V100.938H37.2617V118ZM41.5944 118V107.805H39.7077V105.32H41.5944V104.242C41.5944 102.82 42.0006 101.719 42.8131 100.938C43.6334 100.148 44.778 99.7539 46.2467 99.7539C46.7155 99.7539 47.2897 99.832 47.9694 99.9883L47.9342 102.613C47.653 102.543 47.3092 102.508 46.903 102.508C45.6295 102.508 44.9928 103.105 44.9928 104.301V105.32H47.5123V107.805H44.9928V118H41.5944ZM60.7011 113.207L63.0448 105.32H66.6777L61.58 119.969L61.2987 120.637C60.5409 122.293 59.2909 123.121 57.5487 123.121C57.0566 123.121 56.5566 123.047 56.0487 122.898V120.332L56.5644 120.344C57.205 120.344 57.6816 120.246 57.9941 120.051C58.3144 119.855 58.5644 119.531 58.7441 119.078L59.1425 118.035L54.7011 105.32H58.3456L60.7011 113.207ZM67.6587 111.543C67.6587 110.285 67.9009 109.164 68.3853 108.18C68.8697 107.195 69.565 106.434 70.4712 105.895C71.3853 105.355 72.4439 105.086 73.647 105.086C75.358 105.086 76.7525 105.609 77.8306 106.656C78.9166 107.703 79.522 109.125 79.647 110.922L79.6705 111.789C79.6705 113.734 79.1275 115.297 78.0416 116.477C76.9556 117.648 75.4986 118.234 73.6705 118.234C71.8423 118.234 70.3814 117.648 69.2877 116.477C68.2017 115.305 67.6587 113.711 67.6587 111.695V111.543ZM71.0455 111.789C71.0455 112.992 71.272 113.914 71.7252 114.555C72.1783 115.188 72.8267 115.504 73.6705 115.504C74.4908 115.504 75.1314 115.191 75.5923 114.566C76.0533 113.934 76.2837 112.926 76.2837 111.543C76.2837 110.363 76.0533 109.449 75.5923 108.801C75.1314 108.152 74.483 107.828 73.647 107.828C72.8189 107.828 72.1783 108.152 71.7252 108.801C71.272 109.441 71.0455 110.438 71.0455 111.789ZM89.7102 116.711C88.8742 117.727 87.718 118.234 86.2414 118.234C84.882 118.234 83.843 117.844 83.1242 117.062C82.4133 116.281 82.05 115.137 82.0344 113.629V105.32H85.4211V113.512C85.4211 114.832 86.0227 115.492 87.2258 115.492C88.3742 115.492 89.1633 115.094 89.593 114.297V105.32H92.9914V118H89.8039L89.7102 116.711ZM107.516 115.504C108.141 115.504 108.649 115.332 109.04 114.988C109.43 114.645 109.633 114.188 109.649 113.617H112.825C112.817 114.477 112.582 115.266 112.122 115.984C111.661 116.695 111.028 117.25 110.223 117.648C109.426 118.039 108.543 118.234 107.575 118.234C105.762 118.234 104.332 117.66 103.286 116.512C102.239 115.355 101.715 113.762 101.715 111.73V111.508C101.715 109.555 102.235 107.996 103.274 106.832C104.313 105.668 105.739 105.086 107.551 105.086C109.137 105.086 110.407 105.539 111.36 106.445C112.321 107.344 112.809 108.543 112.825 110.043H109.649C109.633 109.387 109.43 108.855 109.04 108.449C108.649 108.035 108.133 107.828 107.493 107.828C106.704 107.828 106.106 108.117 105.7 108.695C105.301 109.266 105.102 110.195 105.102 111.484V111.836C105.102 113.141 105.301 114.078 105.7 114.648C106.098 115.219 106.704 115.504 107.516 115.504ZM122.466 118C122.31 117.695 122.196 117.316 122.126 116.863C121.306 117.777 120.239 118.234 118.927 118.234C117.685 118.234 116.653 117.875 115.833 117.156C115.021 116.438 114.614 115.531 114.614 114.438C114.614 113.094 115.11 112.062 116.103 111.344C117.103 110.625 118.544 110.262 120.427 110.254H121.985V109.527C121.985 108.941 121.833 108.473 121.528 108.121C121.232 107.77 120.759 107.594 120.11 107.594C119.54 107.594 119.091 107.73 118.763 108.004C118.442 108.277 118.282 108.652 118.282 109.129H114.896C114.896 108.395 115.122 107.715 115.575 107.09C116.028 106.465 116.669 105.977 117.497 105.625C118.325 105.266 119.255 105.086 120.286 105.086C121.849 105.086 123.087 105.48 124.001 106.27C124.923 107.051 125.384 108.152 125.384 109.574V115.07C125.392 116.273 125.56 117.184 125.888 117.801V118H122.466ZM119.665 115.645C120.165 115.645 120.626 115.535 121.048 115.316C121.47 115.09 121.782 114.789 121.985 114.414V112.234H120.72C119.025 112.234 118.122 112.82 118.013 113.992L118.001 114.191C118.001 114.613 118.15 114.961 118.446 115.234C118.743 115.508 119.15 115.645 119.665 115.645ZM131.463 105.32L131.568 106.785C132.474 105.652 133.689 105.086 135.213 105.086C136.556 105.086 137.556 105.48 138.213 106.27C138.869 107.059 139.205 108.238 139.22 109.809V118H135.834V109.891C135.834 109.172 135.677 108.652 135.365 108.332C135.052 108.004 134.533 107.84 133.806 107.84C132.853 107.84 132.138 108.246 131.662 109.059V118H128.275V105.32H131.463ZM152.069 118H148.671V105.32H152.069V118ZM148.472 102.039C148.472 101.531 148.64 101.113 148.976 100.785C149.319 100.457 149.784 100.293 150.37 100.293C150.948 100.293 151.409 100.457 151.753 100.785C152.097 101.113 152.269 101.531 152.269 102.039C152.269 102.555 152.093 102.977 151.741 103.305C151.397 103.633 150.94 103.797 150.37 103.797C149.8 103.797 149.339 103.633 148.987 103.305C148.644 102.977 148.472 102.555 148.472 102.039ZM158.347 105.32L158.453 106.785C159.359 105.652 160.574 105.086 162.097 105.086C163.441 105.086 164.441 105.48 165.097 106.27C165.754 107.059 166.09 108.238 166.105 109.809V118H162.718V109.891C162.718 109.172 162.562 108.652 162.25 108.332C161.937 108.004 161.418 107.84 160.691 107.84C159.738 107.84 159.023 108.246 158.547 109.059V118H155.16V105.32H158.347ZM177.539 102.625C176.867 102.547 176.242 102.508 175.664 102.508C174.133 102.508 173.367 103.16 173.367 104.465V105.32H175.887V107.805H173.367V118H169.969V107.805H168.082V105.32H169.969V104.336C169.985 102.867 170.446 101.738 171.352 100.949C172.258 100.152 173.539 99.7539 175.196 99.7539C176.375 99.7539 178.289 99.8789 180.938 100.129V118H177.539V102.625ZM191.716 116.711C190.88 117.727 189.724 118.234 188.247 118.234C186.888 118.234 185.849 117.844 185.13 117.062C184.419 116.281 184.056 115.137 184.04 113.629V105.32H187.427V113.512C187.427 114.832 188.028 115.492 189.231 115.492C190.38 115.492 191.169 115.094 191.599 114.297V105.32H194.997V118H191.81L191.716 116.711ZM203.748 118.234C201.888 118.234 200.373 117.664 199.201 116.523C198.037 115.383 197.455 113.863 197.455 111.965V111.637C197.455 110.363 197.701 109.227 198.193 108.227C198.685 107.219 199.38 106.445 200.279 105.906C201.185 105.359 202.216 105.086 203.373 105.086C205.107 105.086 206.47 105.633 207.462 106.727C208.462 107.82 208.962 109.371 208.962 111.379V112.762H200.888C200.998 113.59 201.326 114.254 201.873 114.754C202.427 115.254 203.127 115.504 203.97 115.504C205.275 115.504 206.295 115.031 207.029 114.086L208.693 115.949C208.185 116.668 207.498 117.23 206.63 117.637C205.763 118.035 204.802 118.234 203.748 118.234ZM203.361 107.828C202.689 107.828 202.142 108.055 201.72 108.508C201.306 108.961 201.041 109.609 200.923 110.453H205.634V110.184C205.619 109.434 205.416 108.855 205.025 108.449C204.634 108.035 204.08 107.828 203.361 107.828ZM214.373 105.32L214.479 106.785C215.385 105.652 216.6 105.086 218.123 105.086C219.467 105.086 220.467 105.48 221.123 106.27C221.78 107.059 222.115 108.238 222.131 109.809V118H218.744V109.891C218.744 109.172 218.588 108.652 218.276 108.332C217.963 108.004 217.444 107.84 216.717 107.84C215.764 107.84 215.049 108.246 214.572 109.059V118H211.186V105.32H214.373ZM230.343 115.504C230.968 115.504 231.475 115.332 231.866 114.988C232.257 114.645 232.46 114.188 232.475 113.617H235.651C235.643 114.477 235.409 115.266 234.948 115.984C234.487 116.695 233.854 117.25 233.05 117.648C232.253 118.039 231.37 118.234 230.401 118.234C228.589 118.234 227.159 117.66 226.112 116.512C225.065 115.355 224.542 113.762 224.542 111.73V111.508C224.542 109.555 225.061 107.996 226.1 106.832C227.14 105.668 228.565 105.086 230.378 105.086C231.964 105.086 233.233 105.539 234.186 106.445C235.147 107.344 235.636 108.543 235.651 110.043H232.475C232.46 109.387 232.257 108.855 231.866 108.449C231.475 108.035 230.96 107.828 230.319 107.828C229.53 107.828 228.932 108.117 228.526 108.695C228.128 109.266 227.929 110.195 227.929 111.484V111.836C227.929 113.141 228.128 114.078 228.526 114.648C228.925 115.219 229.53 115.504 230.343 115.504ZM243.781 118.234C241.921 118.234 240.406 117.664 239.234 116.523C238.07 115.383 237.488 113.863 237.488 111.965V111.637C237.488 110.363 237.734 109.227 238.226 108.227C238.718 107.219 239.414 106.445 240.312 105.906C241.218 105.359 242.25 105.086 243.406 105.086C245.14 105.086 246.503 105.633 247.496 106.727C248.496 107.82 248.996 109.371 248.996 111.379V112.762H240.921C241.031 113.59 241.359 114.254 241.906 114.754C242.46 115.254 243.16 115.504 244.003 115.504C245.308 115.504 246.328 115.031 247.062 114.086L248.726 115.949C248.218 116.668 247.531 117.23 246.664 117.637C245.796 118.035 244.835 118.234 243.781 118.234ZM243.394 107.828C242.722 107.828 242.175 108.055 241.753 108.508C241.339 108.961 241.074 109.609 240.957 110.453H245.667V110.184C245.652 109.434 245.449 108.855 245.058 108.449C244.667 108.035 244.113 107.828 243.394 107.828ZM38.0352 141.207L40.3789 133.32H44.0117L38.9141 147.969L38.6328 148.637C37.875 150.293 36.625 151.121 34.8828 151.121C34.3906 151.121 33.8906 151.047 33.3828 150.898V148.332L33.8984 148.344C34.5391 148.344 35.0156 148.246 35.3281 148.051C35.6484 147.855 35.8984 147.531 36.0781 147.078L36.4766 146.035L32.0352 133.32H35.6797L38.0352 141.207ZM44.9928 139.543C44.9928 138.285 45.235 137.164 45.7194 136.18C46.2037 135.195 46.8991 134.434 47.8053 133.895C48.7194 133.355 49.778 133.086 50.9811 133.086C52.692 133.086 54.0866 133.609 55.1647 134.656C56.2506 135.703 56.8561 137.125 56.9811 138.922L57.0045 139.789C57.0045 141.734 56.4616 143.297 55.3756 144.477C54.2897 145.648 52.8327 146.234 51.0045 146.234C49.1764 146.234 47.7155 145.648 46.6217 144.477C45.5358 143.305 44.9928 141.711 44.9928 139.695V139.543ZM48.3795 139.789C48.3795 140.992 48.6061 141.914 49.0592 142.555C49.5123 143.188 50.1608 143.504 51.0045 143.504C51.8248 143.504 52.4655 143.191 52.9264 142.566C53.3873 141.934 53.6178 140.926 53.6178 139.543C53.6178 138.363 53.3873 137.449 52.9264 136.801C52.4655 136.152 51.817 135.828 50.9811 135.828C50.153 135.828 49.5123 136.152 49.0592 136.801C48.6061 137.441 48.3795 138.438 48.3795 139.789ZM67.0442 144.711C66.2083 145.727 65.052 146.234 63.5755 146.234C62.2161 146.234 61.177 145.844 60.4583 145.062C59.7473 144.281 59.3841 143.137 59.3684 141.629V133.32H62.7552V141.512C62.7552 142.832 63.3567 143.492 64.5598 143.492C65.7083 143.492 66.4973 143.094 66.927 142.297V133.32H70.3255V146H67.138L67.0442 144.711ZM84.8502 143.504C85.4752 143.504 85.983 143.332 86.3736 142.988C86.7642 142.645 86.9673 142.188 86.983 141.617H90.1587C90.1509 142.477 89.9166 143.266 89.4556 143.984C88.9947 144.695 88.3619 145.25 87.5572 145.648C86.7603 146.039 85.8775 146.234 84.9087 146.234C83.0962 146.234 81.6666 145.66 80.6197 144.512C79.5728 143.355 79.0494 141.762 79.0494 139.73V139.508C79.0494 137.555 79.5689 135.996 80.608 134.832C81.647 133.668 83.0728 133.086 84.8853 133.086C86.4712 133.086 87.7408 133.539 88.6939 134.445C89.6548 135.344 90.1431 136.543 90.1587 138.043H86.983C86.9673 137.387 86.7642 136.855 86.3736 136.449C85.983 136.035 85.4673 135.828 84.8267 135.828C84.0377 135.828 83.44 136.117 83.0337 136.695C82.6353 137.266 82.4361 138.195 82.4361 139.484V139.836C82.4361 141.141 82.6353 142.078 83.0337 142.648C83.4322 143.219 84.0377 143.504 84.8502 143.504ZM99.8 146C99.6437 145.695 99.5305 145.316 99.4602 144.863C98.6398 145.777 97.5734 146.234 96.2609 146.234C95.0187 146.234 93.9875 145.875 93.1672 145.156C92.3547 144.438 91.9484 143.531 91.9484 142.438C91.9484 141.094 92.4445 140.062 93.4367 139.344C94.4367 138.625 95.8781 138.262 97.7609 138.254H99.3195V137.527C99.3195 136.941 99.1672 136.473 98.8625 136.121C98.5656 135.77 98.093 135.594 97.4445 135.594C96.8742 135.594 96.425 135.73 96.0969 136.004C95.7766 136.277 95.6164 136.652 95.6164 137.129H92.2297C92.2297 136.395 92.4562 135.715 92.9094 135.09C93.3625 134.465 94.0031 133.977 94.8312 133.625C95.6594 133.266 96.5891 133.086 97.6203 133.086C99.1828 133.086 100.421 133.48 101.335 134.27C102.257 135.051 102.718 136.152 102.718 137.574V143.07C102.726 144.273 102.894 145.184 103.222 145.801V146H99.8ZM96.9992 143.645C97.4992 143.645 97.9602 143.535 98.382 143.316C98.8039 143.09 99.1164 142.789 99.3195 142.414V140.234H98.0539C96.3586 140.234 95.4562 140.82 95.3469 141.992L95.3352 142.191C95.3352 142.613 95.4836 142.961 95.7805 143.234C96.0773 143.508 96.4836 143.645 96.9992 143.645ZM108.797 133.32L108.902 134.785C109.808 133.652 111.023 133.086 112.547 133.086C113.89 133.086 114.89 133.48 115.547 134.27C116.203 135.059 116.539 136.238 116.555 137.809V146H113.168V137.891C113.168 137.172 113.012 136.652 112.699 136.332C112.387 136.004 111.867 135.84 111.14 135.84C110.187 135.84 109.473 136.246 108.996 137.059V146H105.609V133.32H108.797ZM131.103 143.504C131.728 143.504 132.235 143.332 132.626 142.988C133.017 142.645 133.22 142.188 133.235 141.617H136.411C136.403 142.477 136.169 143.266 135.708 143.984C135.247 144.695 134.614 145.25 133.81 145.648C133.013 146.039 132.13 146.234 131.161 146.234C129.349 146.234 127.919 145.66 126.872 144.512C125.825 143.355 125.302 141.762 125.302 139.73V139.508C125.302 137.555 125.821 135.996 126.86 134.832C127.9 133.668 129.325 133.086 131.138 133.086C132.724 133.086 133.993 133.539 134.946 134.445C135.907 135.344 136.396 136.543 136.411 138.043H133.235C133.22 137.387 133.017 136.855 132.626 136.449C132.235 136.035 131.72 135.828 131.079 135.828C130.29 135.828 129.692 136.117 129.286 136.695C128.888 137.266 128.689 138.195 128.689 139.484V139.836C128.689 141.141 128.888 142.078 129.286 142.648C129.685 143.219 130.29 143.504 131.103 143.504ZM142.01 134.703C142.908 133.625 144.037 133.086 145.396 133.086C148.146 133.086 149.541 134.684 149.58 137.879V146H146.193V137.973C146.193 137.246 146.037 136.711 145.724 136.367C145.412 136.016 144.892 135.84 144.166 135.84C143.174 135.84 142.455 136.223 142.01 136.988V146H138.623V128H142.01V134.703ZM159.842 146C159.686 145.695 159.573 145.316 159.502 144.863C158.682 145.777 157.616 146.234 156.303 146.234C155.061 146.234 154.03 145.875 153.209 145.156C152.397 144.438 151.991 143.531 151.991 142.438C151.991 141.094 152.487 140.062 153.479 139.344C154.479 138.625 155.92 138.262 157.803 138.254H159.362V137.527C159.362 136.941 159.209 136.473 158.905 136.121C158.608 135.77 158.135 135.594 157.487 135.594C156.916 135.594 156.467 135.73 156.139 136.004C155.819 136.277 155.659 136.652 155.659 137.129H152.272C152.272 136.395 152.498 135.715 152.952 135.09C153.405 134.465 154.045 133.977 154.873 133.625C155.702 133.266 156.631 133.086 157.662 133.086C159.225 133.086 160.463 133.48 161.377 134.27C162.299 135.051 162.76 136.152 162.76 137.574V143.07C162.768 144.273 162.936 145.184 163.264 145.801V146H159.842ZM157.041 143.645C157.541 143.645 158.002 143.535 158.424 143.316C158.846 143.09 159.159 142.789 159.362 142.414V140.234H158.096C156.401 140.234 155.498 140.82 155.389 141.992L155.377 142.191C155.377 142.613 155.526 142.961 155.823 143.234C156.12 143.508 156.526 143.645 157.041 143.645ZM168.839 133.32L168.944 134.785C169.851 133.652 171.065 133.086 172.589 133.086C173.933 133.086 174.933 133.48 175.589 134.27C176.245 135.059 176.581 136.238 176.597 137.809V146H173.21V137.891C173.21 137.172 173.054 136.652 172.741 136.332C172.429 136.004 171.909 135.84 171.183 135.84C170.23 135.84 169.515 136.246 169.038 137.059V146H165.651V133.32H168.839ZM179.043 139.566C179.043 137.621 179.504 136.055 180.425 134.867C181.355 133.68 182.605 133.086 184.175 133.086C185.566 133.086 186.648 133.562 187.422 134.516L187.562 133.32H190.633V145.578C190.633 146.688 190.379 147.652 189.871 148.473C189.371 149.293 188.664 149.918 187.75 150.348C186.836 150.777 185.765 150.992 184.539 150.992C183.609 150.992 182.703 150.805 181.82 150.43C180.937 150.062 180.269 149.586 179.816 149L181.316 146.938C182.16 147.883 183.183 148.355 184.386 148.355C185.285 148.355 185.984 148.113 186.484 147.629C186.984 147.152 187.234 146.473 187.234 145.59V144.91C186.453 145.793 185.425 146.234 184.152 146.234C182.629 146.234 181.394 145.641 180.449 144.453C179.511 143.258 179.043 141.676 179.043 139.707V139.566ZM182.429 139.812C182.429 140.961 182.66 141.863 183.121 142.52C183.582 143.168 184.215 143.492 185.019 143.492C186.05 143.492 186.789 143.105 187.234 142.332V137C186.781 136.227 186.05 135.84 185.043 135.84C184.23 135.84 183.59 136.172 183.121 136.836C182.66 137.5 182.429 138.492 182.429 139.812ZM199.442 146.234C197.582 146.234 196.067 145.664 194.895 144.523C193.731 143.383 193.149 141.863 193.149 139.965V139.637C193.149 138.363 193.395 137.227 193.887 136.227C194.379 135.219 195.075 134.445 195.973 133.906C196.879 133.359 197.91 133.086 199.067 133.086C200.801 133.086 202.164 133.633 203.157 134.727C204.157 135.82 204.657 137.371 204.657 139.379V140.762H196.582C196.692 141.59 197.02 142.254 197.567 142.754C198.121 143.254 198.821 143.504 199.664 143.504C200.969 143.504 201.989 143.031 202.723 142.086L204.387 143.949C203.879 144.668 203.192 145.23 202.325 145.637C201.457 146.035 200.496 146.234 199.442 146.234ZM199.055 135.828C198.383 135.828 197.836 136.055 197.414 136.508C197 136.961 196.735 137.609 196.617 138.453H201.328V138.184C201.313 137.434 201.11 136.855 200.719 136.449C200.328 136.035 199.774 135.828 199.055 135.828ZM216.861 146H213.462V128H216.861V146ZM223.596 146H220.197V133.32H223.596V146ZM219.998 130.039C219.998 129.531 220.166 129.113 220.502 128.785C220.846 128.457 221.311 128.293 221.897 128.293C222.475 128.293 222.936 128.457 223.28 128.785C223.623 129.113 223.795 129.531 223.795 130.039C223.795 130.555 223.619 130.977 223.268 131.305C222.924 131.633 222.467 131.797 221.897 131.797C221.326 131.797 220.865 131.633 220.514 131.305C220.17 130.977 219.998 130.555 219.998 130.039ZM231.503 141.863L233.858 133.32H237.397L233.12 146H229.886L225.608 133.32H229.147L231.503 141.863ZM244.929 146.234C243.07 146.234 241.554 145.664 240.382 144.523C239.218 143.383 238.636 141.863 238.636 139.965V139.637C238.636 138.363 238.882 137.227 239.375 136.227C239.867 135.219 240.562 134.445 241.46 133.906C242.367 133.359 243.398 133.086 244.554 133.086C246.289 133.086 247.652 133.633 248.644 134.727C249.644 135.82 250.144 137.371 250.144 139.379V140.762H242.07C242.179 141.59 242.507 142.254 243.054 142.754C243.609 143.254 244.308 143.504 245.152 143.504C246.457 143.504 247.476 143.031 248.21 142.086L249.875 143.949C249.367 144.668 248.679 145.23 247.812 145.637C246.945 146.035 245.984 146.234 244.929 146.234ZM244.542 135.828C243.871 135.828 243.324 136.055 242.902 136.508C242.488 136.961 242.222 137.609 242.105 138.453H246.816V138.184C246.8 137.434 246.597 136.855 246.207 136.449C245.816 136.035 245.261 135.828 244.542 135.828ZM259.305 142.496C259.305 142.082 259.098 141.758 258.684 141.523C258.277 141.281 257.621 141.066 256.715 140.879C253.699 140.246 252.192 138.965 252.192 137.035C252.192 135.91 252.656 134.973 253.586 134.223C254.524 133.465 255.746 133.086 257.254 133.086C258.863 133.086 260.149 133.465 261.11 134.223C262.078 134.98 262.563 135.965 262.563 137.176H259.176C259.176 136.691 259.02 136.293 258.707 135.98C258.395 135.66 257.906 135.5 257.242 135.5C256.672 135.5 256.231 135.629 255.918 135.887C255.606 136.145 255.449 136.473 255.449 136.871C255.449 137.246 255.625 137.551 255.977 137.785C256.336 138.012 256.938 138.211 257.781 138.383C258.625 138.547 259.336 138.734 259.914 138.945C261.703 139.602 262.598 140.738 262.598 142.355C262.598 143.512 262.102 144.449 261.11 145.168C260.117 145.879 258.836 146.234 257.266 146.234C256.203 146.234 255.258 146.047 254.43 145.672C253.61 145.289 252.965 144.77 252.496 144.113C252.027 143.449 251.793 142.734 251.793 141.969H255.004C255.035 142.57 255.258 143.031 255.672 143.352C256.086 143.672 256.641 143.832 257.336 143.832C257.985 143.832 258.473 143.711 258.801 143.469C259.137 143.219 259.305 142.895 259.305 142.496ZM265.325 144.336C265.325 143.797 265.505 143.359 265.864 143.023C266.231 142.688 266.688 142.52 267.235 142.52C267.79 142.52 268.247 142.688 268.606 143.023C268.973 143.359 269.157 143.797 269.157 144.336C269.157 144.867 268.977 145.301 268.618 145.637C268.259 145.965 267.798 146.129 267.235 146.129C266.68 146.129 266.223 145.965 265.864 145.637C265.505 145.301 265.325 144.867 265.325 144.336Z" fill="#454699"/>
<path d="M0 207.71V185C28.1667 185 51 207.833 51 236H28.2899C28.2899 220.375 15.6233 207.71 0 207.71Z" fill="#FFBB56"/>
</svg>
