<svg width="34" height="34" viewBox="0 0 34 34" fill="none" xmlns="http://www.w3.org/2000/svg">
<g clip-path="url(#clip0)">
<path d="M33.6686 17.3916C33.6686 16.236 33.5749 15.0741 33.375 13.9372H17.34V20.4836H26.5225C26.1414 22.595 24.9171 24.4627 23.1243 25.6495V29.8972H28.6026C31.8196 26.9363 33.6686 22.5637 33.6686 17.3916Z" fill="#4285F4"/>
<path d="M17.34 34.0012C21.925 34.0012 25.7916 32.4957 28.6088 29.8972L23.1306 25.6495C21.6064 26.6865 19.6387 27.2736 17.3462 27.2736C12.9112 27.2736 9.15077 24.2815 7.80151 20.2587H2.14838V24.6376C5.03429 30.3782 10.9123 34.0012 17.34 34.0012Z" fill="#34A853"/>
<path d="M7.79529 20.2587C7.08318 18.1474 7.08318 15.8612 7.79529 13.7498V9.371H2.1484C-0.262766 14.1746 -0.262766 19.834 2.1484 24.6376L7.79529 20.2587Z" fill="#FBBC04"/>
<path d="M17.34 6.72869C19.7637 6.69121 22.1061 7.6032 23.8614 9.27728L28.715 4.42371C25.6417 1.5378 21.5627 -0.0488268 17.34 0.00114561C10.9123 0.00114561 5.03429 3.62415 2.14838 9.37098L7.79526 13.7498C9.13827 9.72079 12.9049 6.72869 17.34 6.72869Z" fill="#EA4335"/>
</g>
<defs>
<clipPath id="clip0">
<rect width="34" height="34" fill="white"/>
</clipPath>
</defs>
</svg>
